<svg xmlns="http://www.w3.org/2000/svg" width="15" height="19.5" viewBox="0 0 15 19.5">
  <g id="icon-file-js" transform="translate(-261.75 -584.25)">
    <path id="Path_8" data-name="Path 8" d="M3.75-18.75H13.781l.281.188,4.5,4.5.188.281V.75h-15v-19.5Zm1.5,1.5V-.75h12v-12h-4.5v-4.5Zm9,1.078v1.922h1.922Z" transform="translate(258 603)" fill="#fff"/>
    <path id="Path_7" data-name="Path 7" d="M-1.294-4.227V.531q-.012,1.176-.93,1.176a.978.978,0,0,1-.379-.07l0-.575a.969.969,0,0,0,.27.031A.3.3,0,0,0-2.073.963.861.861,0,0,0-1.986.507V-4.227Zm.031-1.121a.442.442,0,0,1-.1.293.364.364,0,0,1-.3.117.354.354,0,0,1-.291-.117.448.448,0,0,1-.1-.293.464.464,0,0,1,.1-.3.348.348,0,0,1,.291-.121.357.357,0,0,1,.295.123A.454.454,0,0,1-1.263-5.348ZM1.443-1.082a.511.511,0,0,0-.168-.383A2.484,2.484,0,0,0,.626-1.84a4.24,4.24,0,0,1-.787-.395A1.122,1.122,0,0,1-.5-2.607a1.031,1.031,0,0,1-.113-.5,1.109,1.109,0,0,1,.377-.857A1.379,1.379,0,0,1,.724-4.3a1.374,1.374,0,0,1,.992.359,1.221,1.221,0,0,1,.375.922H1.4a.68.68,0,0,0-.191-.486.645.645,0,0,0-.488-.2.686.686,0,0,0-.479.158.543.543,0,0,0-.174.422A.461.461,0,0,0,.2-2.792a2.263,2.263,0,0,0,.611.339,3.073,3.073,0,0,1,1.047.589,1.008,1.008,0,0,1,.277.73,1.112,1.112,0,0,1-.379.882A1.49,1.49,0,0,1,.739.078,1.515,1.515,0,0,1-.331-.3a1.251,1.251,0,0,1-.41-.961h.7a.774.774,0,0,0,.215.551.78.78,0,0,0,.57.2.782.782,0,0,0,.523-.154A.52.52,0,0,0,1.443-1.082Z" transform="translate(270 598)" fill="#fff"/>
  </g>
</svg>
