<svg xmlns="http://www.w3.org/2000/svg" width="15" height="19.5" viewBox="0 0 15 19.5">
  <g id="icon-file-css" transform="translate(-261.75 -584.25)">
    <path id="Path_6" data-name="Path 6" d="M3.75-18.75H13.781l.281.188,4.5,4.5.188.281V.75h-15v-19.5Zm1.5,1.5V-.75h12v-12h-4.5v-4.5Zm9,1.078v1.922h1.922Z" transform="translate(258 603)" fill="#fff"/>
    <path id="Path_5" data-name="Path 5" d="M1.984-.512a.733.733,0,0,0,.551-.213.9.9,0,0,0,.227-.607h.652a1.437,1.437,0,0,1-.432,1.01,1.371,1.371,0,0,1-1,.4,1.47,1.47,0,0,1-1.2-.494A2.251,2.251,0,0,1,.375-1.887v-.465a2.241,2.241,0,0,1,.41-1.455,1.459,1.459,0,0,1,1.2-.5,1.336,1.336,0,0,1,1.029.41,1.668,1.668,0,0,1,.4,1.121H2.762a1.148,1.148,0,0,0-.225-.7.7.7,0,0,0-.557-.234.793.793,0,0,0-.684.3,1.746,1.746,0,0,0-.23.994v.539A1.88,1.88,0,0,0,1.287-.82.8.8,0,0,0,1.984-.512Zm3.881-.57A.511.511,0,0,0,5.7-1.465a2.484,2.484,0,0,0-.648-.375,4.24,4.24,0,0,1-.787-.395,1.122,1.122,0,0,1-.342-.373,1.031,1.031,0,0,1-.113-.5,1.109,1.109,0,0,1,.377-.857A1.379,1.379,0,0,1,5.147-4.3a1.374,1.374,0,0,1,.992.359,1.221,1.221,0,0,1,.375.922H5.827a.68.68,0,0,0-.191-.486.645.645,0,0,0-.488-.2.686.686,0,0,0-.479.158.543.543,0,0,0-.174.422.461.461,0,0,0,.127.339,2.263,2.263,0,0,0,.611.339,3.073,3.073,0,0,1,1.047.589,1.008,1.008,0,0,1,.277.73,1.112,1.112,0,0,1-.379.882A1.49,1.49,0,0,1,5.162.078,1.515,1.515,0,0,1,4.092-.3a1.251,1.251,0,0,1-.41-.961h.7a.774.774,0,0,0,.215.551.78.78,0,0,0,.57.2.782.782,0,0,0,.523-.154A.52.52,0,0,0,5.866-1.082Zm3.245,0a.511.511,0,0,0-.168-.383,2.484,2.484,0,0,0-.648-.375,4.24,4.24,0,0,1-.787-.395,1.122,1.122,0,0,1-.342-.373,1.031,1.031,0,0,1-.113-.5,1.109,1.109,0,0,1,.377-.857A1.379,1.379,0,0,1,8.391-4.3a1.374,1.374,0,0,1,.992.359,1.221,1.221,0,0,1,.375.922H9.071A.68.68,0,0,0,8.88-3.51a.645.645,0,0,0-.488-.2.686.686,0,0,0-.479.158.543.543,0,0,0-.174.422.461.461,0,0,0,.127.339,2.263,2.263,0,0,0,.611.339,3.073,3.073,0,0,1,1.047.589,1.008,1.008,0,0,1,.277.73,1.112,1.112,0,0,1-.379.882A1.49,1.49,0,0,1,8.407.078,1.515,1.515,0,0,1,7.337-.3a1.251,1.251,0,0,1-.41-.961h.7a.774.774,0,0,0,.215.551.78.78,0,0,0,.57.2A.782.782,0,0,0,8.93-.666.52.52,0,0,0,9.11-1.082Z" transform="translate(264 598)" fill="#fff"/>
  </g>
</svg>
